<svg width="40" height="40" viewBox="0 0 40 40" fill="none" xmlns="http://www.w3.org/2000/svg">
<path d="M38.5277 30.2487L31.4965 25.1086C31.122 24.8348 30.6623 24.703 30.1996 24.7367C29.7369 24.7705 29.3012 24.9676 28.9703 25.2928L25.2139 28.9819L25.2011 28.9947C24.8855 29.2999 24.4623 29.4683 24.0233 29.4634C23.5843 29.4585 23.1649 29.2807 22.8562 28.9685L16.3626 22.4749L11.0313 17.1436C10.7191 16.8349 10.5413 16.4155 10.5364 15.9765C10.5315 15.5375 10.6999 15.1143 11.0051 14.7987L11.0179 14.7859L14.707 11.0294C15.0322 10.6986 15.2293 10.2629 15.2631 9.80018C15.2968 9.33745 15.165 8.87779 14.8912 8.50325L9.75105 1.4721C9.58439 1.24409 9.37036 1.05486 9.12366 0.917396C8.87695 0.779931 8.60342 0.69749 8.32184 0.675736C8.04026 0.653983 7.7573 0.693431 7.49241 0.791371C7.22752 0.889312 6.98696 1.04343 6.78726 1.24313L4.13728 3.89311C3.96992 4.06047 3.81011 4.23423 3.65785 4.41438C3.17144 4.98912 2.11842 6.27809 1.71802 7.10737C0.797855 9.0488 0.477008 11.2204 0.796429 13.3449C1.11585 15.4695 2.06105 17.4507 3.5114 19.0358L20.964 36.4884C22.5491 37.9387 24.5303 38.8839 26.6549 39.2034C28.7794 39.5228 30.951 39.2019 32.8924 38.2818C33.7217 37.8814 35.0107 36.8284 35.5854 36.3419C35.7656 36.1897 35.9393 36.0299 36.1067 35.8625L38.7567 33.2125C38.9564 33.0128 39.1105 32.7723 39.2084 32.5074C39.3064 32.2425 39.3458 31.9595 39.3241 31.678C39.3023 31.3964 39.2199 31.1228 39.0824 30.8761C38.9449 30.6294 38.7557 30.4154 38.5277 30.2487Z" fill="#E2231A"/>
</svg>
