<svg width="238" height="53" viewBox="0 0 238 53" fill="none" xmlns="http://www.w3.org/2000/svg">
<path d="M236.627 42.4935L227.974 6.49347C227.266 3.55118 226.913 2.08003 225.824 1.22166C224.734 0.363281 223.221 0.363281 220.195 0.363281H112.785H8.77684C4.25429 0.363281 1.99302 0.363281 0.792712 1.83019C-0.407596 3.29709 0.0399735 5.51363 0.935113 9.9467L8.20435 45.9467C8.82465 49.0187 9.13481 50.5547 10.2399 51.459C11.3451 52.3633 12.9121 52.3633 16.0461 52.3633H112.785H228.849C233.526 52.3633 235.865 52.3633 237.066 50.8392C238.267 49.3151 237.721 47.0413 236.628 42.4936L236.627 42.4935Z" fill="#E2231A"/>
</svg>
