<svg width="25" height="24" viewBox="0 0 25 24" fill="none" xmlns="http://www.w3.org/2000/svg">
<path d="M23.6161 18.0129L19.3974 14.9288C19.1727 14.7646 18.8969 14.6855 18.6193 14.7057C18.3416 14.726 18.0802 14.8442 17.8817 15.0394L15.6278 17.2528L15.6202 17.2605C15.4308 17.4436 15.1769 17.5446 14.9135 17.5417C14.6501 17.5388 14.3985 17.4321 14.2132 17.2448L10.3171 13.3486L7.11829 10.1498C6.93099 9.96458 6.8243 9.71297 6.82136 9.44957C6.81843 9.18617 6.91948 8.93224 7.10259 8.74288L7.11027 8.73521L9.3237 6.48134C9.51885 6.28282 9.6371 6.02141 9.65734 5.74378C9.67759 5.46614 9.59852 5.19035 9.43423 4.96562L6.35014 0.746931C6.25015 0.610128 6.12173 0.496589 5.97371 0.414109C5.82568 0.33163 5.66156 0.282166 5.49261 0.269114C5.32367 0.256061 5.15389 0.27973 4.99496 0.338495C4.83602 0.397259 4.69169 0.489727 4.57187 0.609548L2.98188 2.19953C2.88146 2.29995 2.78558 2.40421 2.69422 2.5123C2.40237 2.85715 1.77057 3.63052 1.53033 4.1281C0.978225 5.29295 0.785717 6.59589 0.977369 7.87063C1.16902 9.14538 1.73614 10.3341 2.60635 11.2851L13.0779 21.7567C14.029 22.6269 15.2177 23.194 16.4924 23.3857C17.7672 23.5773 19.0701 23.3848 20.235 22.8327C20.7325 22.5925 21.5059 21.9607 21.8508 21.6688C21.9588 21.5775 22.0631 21.4816 22.1635 21.3812L23.7535 19.7912C23.8733 19.6714 23.9658 19.527 24.0246 19.3681C24.0833 19.2092 24.107 19.0394 24.0939 18.8704C24.0809 18.7015 24.0314 18.5374 23.949 18.3894C23.8665 18.2413 23.7529 18.1129 23.6161 18.0129Z" fill="#E2231A"/>
</svg>
