<svg width="40" height="40" viewBox="0 0 40 40" fill="none" xmlns="http://www.w3.org/2000/svg">
<path fill-rule="evenodd" clip-rule="evenodd" d="M40 20C40 31.0457 31.0457 40 20 40C16.0643 40 12.3941 38.8632 9.29991 36.9L0 40L3.09997 30.7001C1.13681 27.6059 0 23.9357 0 20C0 8.95429 8.95429 0 20 0C31.0457 0 40 8.95429 40 20ZM26.7378 31.3887C17.1071 32.0977 8.15482 23.2653 9.40241 12.7974C9.7925 9.52491 13.5756 7.68768 15.5018 8.99687C15.7882 9.19161 16.5849 11.8003 16.5265 13.6115C16.5137 14.0089 16.2742 14.3523 15.9388 14.5659L14.7894 15.2979C14.2591 15.6357 14.0079 16.2822 14.1999 16.881C15.7533 21.7242 18.3761 24.8908 23.162 26.3804C23.7564 26.5654 24.3907 26.3006 24.7163 25.7699L25.2066 24.9705C25.5423 24.4232 26.2032 24.1634 26.8113 24.3696C28.6097 24.9791 30.395 25.815 30.5902 26.3342C31.2322 28.297 29.2994 31.2001 26.7378 31.3887Z" fill="#E2231A"/>
</svg>
