<svg width="28" height="28" viewBox="0 0 28 28" fill="none" xmlns="http://www.w3.org/2000/svg">
<path fill-rule="evenodd" clip-rule="evenodd" d="M27.125 14C27.125 21.2488 21.2488 27.125 14 27.125C11.4172 27.125 9.00863 26.379 6.97807 25.0906L0.875 27.125L2.90936 21.0219C1.62103 18.9914 0.875 16.5828 0.875 14C0.875 6.75125 6.75125 0.875 14 0.875C21.2488 0.875 27.125 6.75125 27.125 14ZM18.4217 21.4738C12.1015 21.9391 6.2266 16.1428 7.04533 9.2733C7.30133 7.12572 9.784 5.92004 11.048 6.7792C11.236 6.90699 11.7588 8.61893 11.7205 9.80756C11.7121 10.0684 11.5549 10.2937 11.3349 10.4339L10.5805 10.9143C10.2325 11.1359 10.0677 11.5602 10.1937 11.9531C11.2131 15.1315 12.9343 17.2096 16.075 18.1872C16.4652 18.3086 16.8814 18.1348 17.0951 17.7865L17.4168 17.2619C17.6371 16.9027 18.0709 16.7322 18.4699 16.8675C19.6501 17.2675 20.8217 17.8161 20.9498 18.1568C21.3712 19.4449 20.1027 21.3501 18.4217 21.4738Z" fill="#FBFEFD"/>
</svg>
