<svg width="30" height="30" viewBox="0 0 30 30" fill="none" xmlns="http://www.w3.org/2000/svg">
<path fill-rule="evenodd" clip-rule="evenodd" d="M15 30C23.2843 30 30 23.2843 30 15C30 6.71574 23.2843 0 15 0C6.71574 0 0 6.71574 0 15C0 23.2843 6.71574 30 15 30ZM16.0607 6.90501C15.1958 6.92913 14.2832 7.13733 13.6385 7.74984C13.1061 8.24232 12.8379 8.95908 12.7776 9.67557C12.7592 10.1881 12.7619 10.7019 12.7645 11.2155C12.7664 11.6006 12.7684 11.9857 12.7615 12.37C12.5248 12.3718 12.2873 12.3713 12.0497 12.3708C11.7328 12.3701 11.4158 12.3695 11.1 12.374C11.1 12.6807 11.1004 12.9878 11.1009 13.2952C11.1018 13.9109 11.1027 14.5277 11.1 15.1446C11.4158 15.1492 11.7328 15.1485 12.0497 15.1479C12.2873 15.1474 12.5248 15.1469 12.7615 15.1486C12.7669 16.3712 12.7659 17.5936 12.7649 18.8161C12.7637 20.3442 12.7624 21.8722 12.7736 23.4002C13.4233 23.3957 14.0717 23.3963 14.7203 23.397C15.2068 23.3975 15.6934 23.398 16.1808 23.3962C16.1848 22.0209 16.1838 20.6467 16.1828 19.2724C16.1818 17.8982 16.1808 16.5239 16.1848 15.1486C16.5125 15.1469 16.8403 15.1474 17.168 15.1479C17.605 15.1485 18.0419 15.1492 18.4789 15.1446C18.6151 14.2237 18.7311 13.2947 18.7951 12.362C18.3628 12.36 17.9304 12.36 17.498 12.36C17.0656 12.36 16.6332 12.36 16.2009 12.358C16.2009 12.1968 16.2006 12.0356 16.2004 11.8745C16.1996 11.391 16.1989 10.9077 16.2049 10.4242C16.2729 10.0518 16.6572 9.76749 17.0296 9.79161H18.7991C18.8032 8.82672 18.8032 7.86588 18.7991 6.90099C18.571 6.90099 18.3428 6.90075 18.1146 6.90051C17.4301 6.89976 16.7454 6.89901 16.0607 6.90501Z" fill="#FBFEFD"/>
</svg>
